<svg width="207" height="40" viewBox="0 0 207 40" fill="none" xmlns="http://www.w3.org/2000/svg">
<path d="M0 4.63158H19.9518V24.8421H0V4.63158Z" fill="#FFCE00"/>
<path d="M22.9974 9.16602H3.04558V29.3765H22.9974V9.16602Z" fill="#3D4957" stroke="url(#paint0_linear)"/>
<path d="M26.686 14.4298H6.73415V34.6403H26.686V14.4298Z" fill="#FFE71A"/>
<path d="M37.8253 9.1368H43.4255C44.8234 9.1368 46.0085 9.28863 46.9819 9.59221C47.9725 9.87798 48.7689 10.4406 49.3707 11.28C49.9722 12.1194 50.2732 13.2981 50.2732 14.8162C50.2732 16.1021 49.9988 17.1022 49.4501 17.8166C48.9015 18.531 48.1233 18.9865 47.1145 19.1829C48.3532 19.3437 49.2997 19.8705 49.9543 20.7635C50.6094 21.6565 50.9365 22.871 50.9365 24.4069C50.9365 28.6933 48.7689 30.8364 44.4339 30.8364H37.8253V9.1368ZM43.5049 17.8166C44.5137 17.8166 45.195 17.5845 45.5487 17.1201C45.9203 16.6558 46.1061 15.9325 46.1061 14.9501C46.1061 14.0929 45.8759 13.4499 45.4161 13.0213C44.956 12.5748 44.2835 12.3515 43.3989 12.3515H42.5759V17.8166H43.5049ZM43.5847 27.4877C44.5931 27.4877 45.301 27.2377 45.7079 26.7376C46.1327 26.2197 46.3447 25.416 46.3447 24.3265C46.3447 23.0942 46.1327 22.228 45.7079 21.7279C45.301 21.2278 44.5844 20.9778 43.5581 20.9778H42.5759V27.4877H43.5847ZM59.5861 31.1579C57.2683 31.1579 55.6136 30.5596 54.6226 29.363C53.6321 28.1485 53.1367 26.3625 53.1367 24.0051V15.9413C53.1367 13.5839 53.6321 11.8157 54.6226 10.637C55.6136 9.44038 57.2683 8.8421 59.5861 8.8421C61.9217 8.8421 63.5847 9.44038 64.5757 10.637C65.5841 11.8336 66.0883 13.6018 66.0883 15.9413V24.0051C66.0883 26.3625 65.5841 28.1485 64.5757 29.363C63.5847 30.5596 61.9217 31.1579 59.5861 31.1579ZM59.5861 27.7556C60.2582 27.7556 60.7005 27.5324 60.9129 27.0859C61.1253 26.6215 61.2313 25.9964 61.2313 25.2106V14.7626C61.2313 13.9589 61.1253 13.3339 60.9129 12.8873C60.7005 12.4408 60.2582 12.2176 59.5861 12.2176C58.9489 12.2176 58.5245 12.4498 58.3121 12.9141C58.0997 13.3606 57.9933 13.9768 57.9933 14.7626V25.2106C57.9933 25.9964 58.0909 26.6215 58.2855 27.0859C58.48 27.5324 58.9135 27.7556 59.5861 27.7556ZM75.1373 31.1579C72.8195 31.1579 71.1648 30.5596 70.1742 29.363C69.1833 28.1485 68.6878 26.3625 68.6878 24.0051V15.9413C68.6878 13.5839 69.1833 11.8157 70.1742 10.637C71.1648 9.44038 72.8195 8.8421 75.1373 8.8421C77.4729 8.8421 79.1359 9.44038 80.1269 10.637C81.1353 11.8336 81.6399 13.6018 81.6399 15.9413V24.0051C81.6399 26.3625 81.1353 28.1485 80.1269 29.363C79.1359 30.5596 77.4729 31.1579 75.1373 31.1579ZM75.1373 27.7556C75.8094 27.7556 76.2521 27.5324 76.4641 27.0859C76.6765 26.6215 76.7829 25.9964 76.7829 25.2106V14.7626C76.7829 13.9589 76.6765 13.3339 76.4641 12.8873C76.2521 12.4408 75.8094 12.2176 75.1373 12.2176C74.5 12.2176 74.0757 12.4498 73.8633 12.9141C73.6508 13.3606 73.5449 13.9768 73.5449 14.7626V25.2106C73.5449 25.9964 73.6421 26.6215 73.8367 27.0859C74.0312 27.5324 74.4651 27.7556 75.1373 27.7556ZM90.2375 31.1579C88.1849 31.1579 86.6544 30.6132 85.6456 29.5237C84.6551 28.4164 84.1243 26.6661 84.0532 24.273L88.1138 23.6568C88.1317 25.032 88.2909 26.0232 88.5918 26.6304C88.9102 27.2198 89.3791 27.5145 89.9984 27.5145C90.7944 27.5145 91.1926 26.9876 91.1926 25.9339C91.1926 25.0945 90.9981 24.3712 90.6086 23.764C90.2374 23.1567 89.6447 22.5048 88.8304 21.8083L86.9728 20.1741C86.0526 19.3883 85.336 18.5579 84.823 17.6827C84.3276 16.7897 84.0798 15.736 84.0798 14.5215C84.0798 12.6998 84.6106 11.2978 85.6722 10.3155C86.7517 9.33322 88.229 8.8421 90.1044 8.8421C92.1395 8.8421 93.5195 9.44038 94.2449 10.637C94.9881 11.8336 95.3863 13.2892 95.4395 15.0037L91.3518 15.5127C91.3169 14.3876 91.2105 13.5839 91.0334 13.1016C90.8742 12.6016 90.5114 12.3515 89.9452 12.3515C89.5383 12.3515 89.2199 12.5301 88.9896 12.8873C88.7776 13.2267 88.6712 13.6107 88.6712 14.0393C88.6712 14.7715 88.8304 15.3877 89.1493 15.8878C89.4855 16.3879 90.0163 16.9594 90.7416 17.6023L92.5199 19.1829C93.5815 20.0938 94.4041 21.0582 94.9881 22.0762C95.5721 23.0942 95.8639 24.2997 95.8639 25.6928C95.8639 26.7108 95.6249 27.6395 95.1473 28.4789C94.6875 29.3005 94.0324 29.9524 93.1833 30.4346C92.3341 30.9168 91.3518 31.1579 90.2375 31.1579ZM100.102 12.6998H96.8639V9.1368H108.091V12.6998H104.879V30.8364H100.102V12.6998ZM115.898 9.1368H119.932L121.206 21.7815L122.825 9.16358H125.984L127.682 21.7011L128.983 9.1368H132.964L130.389 30.8364H126.249L124.418 17.7363L122.692 30.8364H118.499L115.898 9.1368ZM141.386 31.1579C139.068 31.1579 137.413 30.5596 136.423 29.363C135.432 28.1485 134.936 26.3625 134.936 24.0051V15.9413C134.936 13.5839 135.432 11.8157 136.423 10.637C137.413 9.44038 139.068 8.8421 141.386 8.8421C143.721 8.8421 145.385 9.44038 146.375 10.637C147.384 11.8336 147.888 13.6018 147.888 15.9413V24.0051C147.888 26.3625 147.384 28.1485 146.375 29.363C145.385 30.5596 143.721 31.1579 141.386 31.1579ZM141.386 27.7556C142.058 27.7556 142.5 27.5324 142.713 27.0859C142.925 26.6215 143.031 25.9964 143.031 25.2106V14.7626C143.031 13.9589 142.925 13.3339 142.713 12.8873C142.5 12.4408 142.058 12.2176 141.386 12.2176C140.749 12.2176 140.324 12.4498 140.112 12.9141C139.899 13.3606 139.793 13.9768 139.793 14.7626V25.2106C139.793 25.9964 139.89 26.6215 140.085 27.0859C140.279 27.5324 140.713 27.7556 141.386 27.7556ZM150.78 9.1368H156.698C159.052 9.1368 160.83 9.5565 162.033 10.3959C163.236 11.2353 163.838 12.7266 163.838 14.8698C163.838 16.3164 163.652 17.4684 163.28 18.3256C162.909 19.1829 162.219 19.8527 161.21 20.3349L164.156 30.8364H159.246L156.884 21.1118H155.53V30.8364H150.78V9.1368ZM156.857 18.3524C157.813 18.3524 158.476 18.1024 158.848 17.6023C159.237 17.0844 159.432 16.3164 159.432 15.2984C159.432 14.3161 159.254 13.5839 158.901 13.1016C158.547 12.6016 157.937 12.3515 157.07 12.3515H155.53V18.3524H156.857ZM166.694 9.1368H171.444V18.0042L175.054 9.1368H179.698L175.718 18.9418L179.884 30.8364H175.054L171.949 21.2457L171.444 22.103V30.8364H166.694V9.1368ZM181.753 9.1368H191.413V12.4051H186.503V17.7899H190.246V21.1118H186.503V27.5949H191.467V30.8364H181.753V9.1368ZM193.624 9.1368H199.542C201.895 9.1368 203.673 9.5565 204.877 10.3959C206.08 11.2353 206.682 12.7266 206.682 14.8698C206.682 16.3164 206.496 17.4684 206.124 18.3256C205.753 19.1829 205.063 19.8527 204.054 20.3349L207 30.8364H202.09L199.728 21.1118H198.374V30.8364H193.624V9.1368ZM199.701 18.3524C200.657 18.3524 201.32 18.1024 201.692 17.6023C202.081 17.0844 202.276 16.3164 202.276 15.2984C202.276 14.3161 202.098 13.5839 201.745 13.1016C201.391 12.6016 200.78 12.3515 199.914 12.3515H198.374V18.3524H199.701Z" fill="#FFD420"/>
<defs>
<linearGradient id="paint0_linear" x1="2.91213" y1="9.86829" x2="22.7929" y2="30.2693" gradientUnits="userSpaceOnUse">
<stop stop-color="white"/>
<stop offset="1" stop-color="white" stop-opacity="0.5"/>
</linearGradient>
</defs>
</svg>
